<svg xmlns="http://www.w3.org/2000/svg" viewBox="20 228 560 143" role="img" aria-labelledby="glovis-white-title">
<title id="glovis-white-title">Hyundai Glovis</title>
<defs>
<mask id="glovis-knockouts" maskUnits="userSpaceOnUse" x="20" y="228" width="560" height="143">
<rect x="20" y="228" width="560" height="143" fill="#ffffff"/>
<path fill="#000000" d="
  M 276.61 257.50
  A 0.35 0.35 0.0 0 1 276.26 257.85
  L 259.12 257.79
  A 1.25 0.96 0.2 0 1 257.87 256.83
  L 257.91 246.91
  A 1.25 0.96 0.2 0 1 259.16 245.95
  L 276.30 246.01
  A 0.35 0.35 0.0 0 1 276.65 246.36
  L 276.61 257.50
  Z"
/>
<rect fill="#000000" x="213.83" y="246.02" width="18.82" height="24.70" rx="0.85"/>
<rect fill="#000000" x="-23.59" y="-16.84" transform="translate(319.86,329.91) rotate(0.1)" width="47.18" height="33.68" rx="6.65"/>
</mask>
</defs>
<g mask="url(#glovis-knockouts)">
<path fill="#ffffff" d="
  M 48.39 253.87
  Q 56.73 253.87 57.33 253.84
  A 0.52 0.52 0.0 0 0 57.83 253.32
  L 57.83 238.26
  A 0.25 0.25 0.0 0 1 58.08 238.01
  L 66.46 238.01
  A 0.28 0.27 0.0 0 1 66.74 238.28
  L 66.74 278.13
  A 0.58 0.58 0.0 0 1 66.16 278.71
  L 58.24 278.71
  A 0.41 0.41 0.0 0 1 57.83 278.30
  L 57.83 262.12
  A 0.33 0.33 0.0 0 0 57.49 261.80
  Q 55.94 261.87 48.40 261.87
  Q 40.86 261.87 39.31 261.80
  A 0.33 0.33 0.0 0 0 38.96 262.13
  L 38.97 278.31
  A 0.41 0.41 0.0 0 1 38.56 278.72
  L 30.64 278.72
  A 0.58 0.58 0.0 0 1 30.06 278.14
  L 30.04 238.29
  A 0.28 0.27 -0.0 0 1 30.32 238.02
  L 38.70 238.02
  A 0.25 0.25 0.0 0 1 38.95 238.27
  L 38.96 253.33
  A 0.52 0.52 0.0 0 0 39.46 253.84
  Q 40.06 253.87 48.39 253.87
  Z"
/>
<path fill="#ffffff" d="
  M 91.29 255.32
  Q 91.57 255.32 91.84 254.86
  Q 96.91 246.47 101.87 238.22
  A 0.46 0.45 15.0 0 1 102.26 238.00
  L 112.50 238.00
  A 0.08 0.08 0.0 0 1 112.57 238.13
  L 96.35 263.29
  A 1.52 1.44 63.3 0 0 96.10 264.12
  L 96.10 278.44
  A 0.36 0.36 0.0 0 1 95.71 278.80
  Q 93.92 278.67 91.32 278.67
  Q 88.73 278.68 86.94 278.82
  A 0.36 0.36 0.0 0 1 86.55 278.45
  L 86.51 264.13
  A 1.52 1.44 -63.4 0 0 86.25 263.30
  L 69.96 238.19
  A 0.08 0.08 0.0 0 1 70.03 238.06
  L 80.27 238.03
  A 0.46 0.45 -15.2 0 1 80.66 238.25
  Q 85.65 246.49 90.74 254.86
  Q 91.02 255.32 91.29 255.32
  Z"
/>
<path fill="#ffffff" d="
  M 152.47 238.38
  Q 152.44 255.59 152.49 263.09
  C 152.56 271.80 153.54 278.81 143.28 278.80
  Q 131.82 278.78 116.05 278.76
  A 0.36 0.36 0.0 0 1 115.69 278.40
  L 115.69 238.36
  A 0.36 0.35 0.0 0 1 116.05 238.01
  L 124.29 238.01
  A 0.34 0.34 0.0 0 1 124.63 238.35
  L 124.63 270.28
  A 0.43 0.42 90.0 0 0 125.05 270.71
  L 142.34 270.71
  A 1.21 1.21 0.0 0 0 143.55 269.50
  L 143.55 238.35
  A 0.35 0.34 0.0 0 1 143.90 238.01
  L 152.10 238.01
  A 0.37 0.37 0.0 0 1 152.47 238.38
  Z"
/>
<path fill="#ffffff" d="
  M 160.68 278.77
  A 0.35 0.35 0.0 0 1 160.33 278.42
  L 160.33 238.36
  A 0.36 0.36 0.0 0 1 160.69 238.00
  Q 174.04 238.01 187.24 237.99
  C 195.20 237.99 197.17 241.06 197.13 248.75
  Q 197.10 254.43 197.05 278.22
  A 0.56 0.56 0.0 0 1 196.49 278.78
  L 188.64 278.78
  A 0.52 0.51 -90.0 0 1 188.13 278.26
  L 188.13 247.55
  A 1.53 1.52 0.0 0 0 186.60 246.03
  L 169.87 246.03
  A 0.62 0.62 0.0 0 0 169.25 246.65
  L 169.25 278.36
  A 0.41 0.41 0.0 0 1 168.84 278.77
  L 160.68 278.77
  Z"
/>
<path fill="#ffffff" d="
  M 204.85 238.54
  A 0.56 0.56 0.0 0 1 205.41 237.98
  L 233.62 237.98
  A 8.01 7.79 -0.0 0 1 241.63 245.77
  L 241.63 270.99
  A 8.01 7.79 0.0 0 1 233.62 278.78
  L 205.41 278.78
  A 0.56 0.56 0.0 0 1 204.85 278.22
  L 204.85 238.54
  Z
  M 232.65 246.87
  A 0.85 0.85 0.0 0 0 231.80 246.02
  L 214.68 246.02
  A 0.85 0.85 0.0 0 0 213.83 246.87
  L 213.83 269.87
  A 0.85 0.85 0.0 0 0 214.68 270.72
  L 231.80 270.72
  A 0.85 0.85 0.0 0 0 232.65 269.87
  L 232.65 246.87
  Z"
/>
<path fill="#ffffff" d="
  M 275.92 265.73
  L 258.41 265.73
  A 0.57 0.57 0.0 0 0 257.84 266.30
  L 257.84 278.45
  A 0.34 0.33 90.0 0 1 257.51 278.79
  L 249.38 278.79
  A 0.35 0.34 -0.0 0 1 249.03 278.45
  C 248.83 269.23 249.09 260.63 248.95 251.79
  C 248.85 244.69 248.65 238.02 257.00 238.01
  Q 267.04 238.00 285.12 238.01
  A 0.50 0.49 0.0 0 1 285.62 238.50
  L 285.62 278.49
  A 0.29 0.28 -0.0 0 1 285.33 278.77
  L 276.92 278.77
  A 0.28 0.28 0.0 0 1 276.64 278.49
  L 276.64 266.44
  A 0.72 0.71 -0.0 0 0 275.92 265.73
  Z
  M 276.61 257.50
  L 276.65 246.36
  A 0.35 0.35 0.0 0 0 276.30 246.01
  L 259.16 245.95
  A 1.25 0.96 0.2 0 0 257.91 246.91
  L 257.87 256.83
  A 1.25 0.96 0.2 0 0 259.12 257.79
  L 276.26 257.85
  A 0.35 0.35 0.0 0 0 276.61 257.50
  Z"
/>
<rect fill="#ffffff" x="294.48" y="238.01" width="9.52" height="40.76" rx="0.42"/>


<path fill="#ffffff" d="
  M 142.81 337.33
  A 0.43 0.43 0.0 0 1 142.38 336.90
  L 142.38 322.12
  A 0.31 0.31 0.0 0 1 142.69 321.81
  L 192.66 321.81
  A 0.44 0.44 0.0 0 1 193.10 322.24
  Q 193.20 341.60 193.04 347.47
  C 192.81 355.83 183.83 360.80 176.48 360.82
  Q 138.59 360.93 131.03 360.77
  Q 127.61 360.70 123.00 358.21
  C 117.03 354.98 115.75 349.99 115.78 342.87
  Q 115.84 328.91 115.81 314.75
  C 115.79 305.63 122.41 299.07 131.51 299.07
  Q 161.05 299.10 192.56 299.10
  A 0.51 0.51 0.0 0 1 193.07 299.61
  L 193.07 311.93
  A 0.52 0.52 0.0 0 1 192.55 312.45
  Q 142.02 312.47 141.17 312.44
  C 134.77 312.21 131.55 314.32 131.55 320.63
  Q 131.56 341.07 131.59 341.71
  A 2.85 2.54 37.6 0 0 131.75 342.56
  C 133.08 346.46 135.88 347.51 140.03 347.46
  Q 142.85 347.42 169.25 347.45
  Q 173.86 347.46 175.97 344.22
  C 177.16 342.39 176.84 340.11 176.88 337.60
  A 0.26 0.26 0.0 0 0 176.62 337.33
  L 142.81 337.33
  Z"
/>
<path fill="#ffffff" d="
  M 567.84 312.61
  L 515.20 312.61
  A 3.71 3.71 0.0 0 0 511.49 316.31
  L 511.48 318.52
  A 3.11 3.10 -1.5 0 0 514.80 321.66
  Q 514.93 321.65 553.51 321.65
  C 562.42 321.65 569.86 325.32 569.97 335.25
  Q 570.09 345.18 569.86 348.70
  C 569.23 358.39 561.28 360.91 553.06 360.92
  Q 524.92 360.92 497.19 360.92
  A 0.62 0.62 0.0 0 1 496.57 360.30
  L 496.57 347.91
  A 0.60 0.59 -0.0 0 1 497.17 347.32
  Q 510.87 347.31 549.51 347.33
  C 552.02 347.33 553.06 346.57 553.19 344.09
  C 553.35 341.11 553.87 337.10 550.00 337.13
  Q 545.78 337.16 512.42 337.14
  Q 505.38 337.13 502.77 336.05
  C 496.01 333.23 494.42 327.78 494.64 320.53
  C 494.76 316.47 494.29 312.24 495.31 308.50
  C 497.70 299.78 505.29 299.04 513.98 299.11
  Q 523.66 299.18 567.84 299.14
  A 0.60 0.59 -0.0 0 1 568.44 299.73
  L 568.44 312.02
  A 0.60 0.59 -0.0 0 1 567.84 312.61
  Z"
/>
<path fill="#ffffff" d="
  M 359.94 345.21
  A 15.50 15.50 0.0 0 1 344.44 360.71
  L 295.24 360.71
  A 15.50 15.50 0.0 0 1 279.74 345.21
  L 279.74 314.73
  A 15.50 15.50 0.0 0 1 295.24 299.23
  L 344.44 299.23
  A 15.50 15.50 0.0 0 1 359.94 314.73
  L 359.94 345.21
  Z
  M 343.4677 319.7612
  A 6.65 6.65 0.0 0 0 336.8294 313.0996
  L 302.9494 313.0405
  A 6.65 6.65 0.0 0 0 296.2878 319.6788
  L 296.2523 340.0588
  A 6.65 6.65 0.0 0 0 302.8906 346.7204
  L 336.7706 346.7795
  A 6.65 6.65 0.0 0 0 343.4322 340.1412
  L 343.4677 319.7612
  Z"
/>
<rect fill="#ffffff" x="464.16" y="299.27" width="16.34" height="61.46" rx="0.40"/>
<path fill="#ffffff" d="
  M 207.85 359.28
  L 207.85 300.20
  A 0.40 0.40 0.0 0 1 208.25 299.80
  L 223.16 299.80
  A 0.40 0.40 0.0 0 1 223.56 300.20
  L 223.56 346.21
  A 0.40 0.40 0.0 0 0 223.96 346.61
  L 273.39 346.61
  A 0.40 0.40 0.0 0 1 273.79 347.01
  L 273.79 359.28
  A 0.40 0.40 0.0 0 1 273.39 359.68
  L 208.25 359.68
  A 0.40 0.40 0.0 0 1 207.85 359.28
  Z"
/>
<path fill="#ffffff" d="
  M 409.38 344.13
  Q 409.44 344.13 409.46 344.13
  A 0.23 0.06 -7.3 0 0 409.62 344.06
  L 435.90 300.32
  A 0.92 0.91 -74.0 0 1 436.68 299.88
  L 454.13 299.88
  A 0.33 0.33 0.0 0 1 454.41 300.38
  L 418.48 360.26
  A 1.06 1.04 10.6 0 1 417.74 360.76
  Q 417.18 360.85 409.38 360.85
  Q 401.57 360.84 401.01 360.75
  A 1.06 1.04 -10.6 0 1 400.27 360.26
  L 364.36 300.37
  A 0.33 0.33 0.0 0 1 364.64 299.87
  L 382.09 299.87
  A 0.92 0.91 74.0 0 1 382.87 300.31
  L 409.14 344.06
  A 0.23 0.06 7.4 0 0 409.30 344.13
  Q 409.32 344.13 409.38 344.13
  Z"
/>
</g>
</svg>
